<svg xmlns="http://www.w3.org/2000/svg" viewBox="0 0 120 120"><defs><linearGradient id="og" x1="0" y1="0" x2="1" y2="1"><stop offset="0" stop-color="#e8c96b"/><stop offset="1" stop-color="#9a7a2e"/></linearGradient></defs><rect x="4" y="4" width="112" height="112" rx="22" fill="url(#og)"/><path d="M40 46 h40 a4 4 0 0 1 4 4 l4 36 a6 6 0 0 1 -6 7 H38 a6 6 0 0 1 -6 -7 l4 -36 a4 4 0 0 1 4 -4 z" fill="#0a0a0a"/><path d="M48 47 a12 12 0 0 1 24 0" fill="none" stroke="#0a0a0a" stroke-width="5" stroke-linecap="round"/><path d="M60 60 C60 70 54 74 50 78 C56 78 62 74 62 66 C66 72 72 70 74 66 C68 66 64 62 60 60 Z" fill="#e8c96b"/></svg>
